<?xml version="1.0" standalone="no"?>
<!DOCTYPE svg PUBLIC "-//W3C//DTD SVG 20010904//EN"
 "http://www.w3.org/TR/2001/REC-SVG-20010904/DTD/svg10.dtd">
<svg version="1.0" xmlns="http://www.w3.org/2000/svg"
 width="500.000000pt" height="333.000000pt" viewBox="0 0 500.000000 333.000000"
 preserveAspectRatio="xMidYMid meet">

<g transform="translate(0.000000,333.000000) scale(0.100000,-0.100000)"
fill="#000000" stroke="none">
<path d="M0 2100 c0 -979 3 -1230 13 -1229 6 2 113 -1 237 -5 185 -6 243 -5
325 9 55 8 151 22 214 31 63 8 144 27 180 41 36 14 78 25 93 25 34 -1 53 27
35 51 -18 23 -54 30 -60 13 -3 -8 -2 -16 3 -18 5 -2 6 -9 1 -17 -5 -7 -14 -10
-20 -7 -14 9 -14 43 0 51 6 5 3 13 -10 22 -12 8 -26 11 -31 8 -6 -3 -10 -2
-10 4 0 6 -15 18 -32 27 -18 9 -35 20 -38 23 -3 3 -29 17 -57 30 -29 14 -51
26 -49 28 4 4 263 -115 681 -312 61 -28 181 -84 267 -125 86 -40 155 -77 152
-81 -3 -5 1 -6 8 -4 8 3 92 -31 188 -76 96 -45 276 -127 400 -184 124 -57 270
-124 325 -150 140 -66 274 -125 284 -125 5 0 11 19 14 43 5 32 2 45 -10 54
-15 11 -15 13 -1 13 10 0 20 20 31 65 9 36 35 105 57 152 54 115 73 191 65
258 -6 46 -12 57 -51 90 -25 20 -57 55 -71 77 -27 40 -106 89 -130 81 -7 -3
-13 3 -13 12 0 9 -14 30 -31 46 -18 16 -29 32 -27 35 9 8 68 -46 68 -62 0 -9
4 -13 8 -10 5 3 26 -6 49 -18 l41 -24 5 42 c8 61 54 99 116 95 38 -3 55 3 96
29 49 32 52 33 125 26 90 -8 102 -13 132 -61 30 -50 47 -114 48 -187 0 -79
-12 -64 -16 19 -1 37 -8 72 -14 80 -6 7 -10 17 -9 21 2 5 -4 22 -11 37 -11 23
-19 27 -44 25 l-31 -3 2 -71 c1 -47 9 -87 22 -115 12 -29 21 -75 25 -131 5
-94 9 -108 31 -108 21 0 45 -53 45 -97 -1 -44 -19 -73 -47 -73 -25 0 -59 -37
-68 -72 -4 -16 -12 -28 -17 -28 -16 0 -5 -83 14 -110 11 -16 18 -47 19 -85 2
-74 18 -125 38 -125 12 0 12 -3 3 -12 -36 -36 -21 -38 293 -38 l305 0 0 28 c0
28 36 205 63 307 10 38 20 146 26 290 6 127 17 262 25 300 38 181 54 284 49
306 -9 34 -59 102 -94 128 -17 12 -35 33 -41 47 -6 13 -17 24 -23 24 -12 0
-107 -181 -99 -189 8 -9 82 71 78 83 -6 15 43 39 58 30 7 -4 8 -32 4 -78 -20
-205 -49 -359 -75 -390 -6 -7 -17 -39 -26 -72 -8 -32 -20 -61 -25 -62 -6 -2
-10 -14 -10 -27 0 -13 -5 -27 -10 -30 -6 -3 -7 -17 -4 -31 4 -17 1 -26 -10
-30 -12 -4 -16 -19 -16 -53 0 -49 -36 -130 -86 -197 -23 -30 -28 -32 -41 -18
-11 11 -13 18 -5 26 8 8 6 18 -5 34 -9 14 -11 24 -4 24 6 0 2 14 -9 33 -10 17
-24 61 -30 97 -7 36 -15 72 -20 80 -12 24 -51 40 -72 29 -57 -30 26 122 136
251 25 30 46 59 46 66 0 6 27 66 60 133 62 126 292 645 316 714 8 22 14 51 14
66 0 33 -31 85 -64 106 -13 9 -118 50 -233 91 -114 42 -289 105 -388 140 -491
177 -1203 431 -1575 561 -440 153 -455 157 -514 118 -30 -20 -63 -74 -191
-315 -118 -222 -252 -467 -277 -508 -14 -22 -23 -30 -28 -22 -5 8 -14 3 -28
-15 -12 -15 -19 -32 -15 -39 4 -6 0 -5 -9 2 -14 11 -16 10 -11 -9 4 -15 3 -20
-5 -15 -7 4 -12 2 -12 -5 0 -7 -3 -9 -7 -6 -3 4 -11 -1 -18 -10 -11 -14 -14
-13 -31 16 -10 17 -22 30 -27 28 -4 -1 -20 -29 -33 -62 -45 -105 -49 -98 47
-88 133 13 195 10 219 -12 27 -24 25 -33 -6 -37 -40 -5 -50 -28 -35 -76 15
-45 6 -76 -14 -48 -11 14 -14 15 -25 1 -9 -11 -9 -19 -2 -28 7 -8 7 -18 2 -27
-8 -12 -10 -12 -10 4 0 15 -3 16 -15 6 -8 -7 -15 -17 -15 -22 0 -14 -60 -68
-87 -79 -30 -11 -43 -5 -43 21 0 22 -22 39 -28 22 -6 -18 -22 -15 -22 4 0 9
-5 13 -13 10 -6 -3 -20 -9 -29 -12 -10 -4 -18 -11 -18 -16 0 -15 -38 1 -67 28
-14 13 -35 24 -45 24 -18 0 -18 -2 -4 -22 21 -30 20 -41 -2 -29 -19 10 -42 -2
-42 -22 0 -12 -26 -37 -39 -37 -6 0 -11 -4 -11 -9 0 -6 -13 -6 -34 0 -19 5
-43 6 -56 1 l-23 -9 22 -22 21 -21 -30 -7 c-21 -4 -29 -10 -26 -19 4 -10 -4
-14 -26 -14 -25 0 -29 -2 -18 -15 16 -20 6 -32 -34 -39 -27 -5 -34 -11 -29
-23 5 -13 2 -15 -15 -11 -12 4 -26 0 -33 -8 -15 -18 -30 -18 -23 0 3 8 -2 17
-13 20 -19 6 -53 55 -64 92 -13 42 37 190 121 359 110 224 134 325 144 620 2
44 10 111 18 150 14 60 14 75 2 108 -8 22 -14 50 -14 63 0 13 -9 47 -20 76
-11 29 -20 63 -20 75 0 51 24 128 46 150 13 13 24 29 24 34 0 6 8 18 19 27 10
10 41 61 70 115 l51 97 -310 0 -310 0 0 -1230z m1721 599 c-9 -22 -10 -22 -10
-3 -1 11 2 24 6 27 12 12 14 0 4 -24z m360 -72 c-13 -13 -26 -3 -16 12 3 6 11
8 17 5 6 -4 6 -10 -1 -17z m189 0 c0 -18 -21 -37 -39 -37 -13 1 -13 2 2 11 9
5 17 17 17 24 0 8 5 15 10 15 6 0 10 -6 10 -13z m-220 -38 c0 -5 -7 -9 -15 -9
-15 0 -20 12 -9 23 8 8 24 -1 24 -14z m380 -44 c11 -13 9 -15 -13 -13 -20 2
-23 5 -15 15 13 16 13 16 28 -2z m-800 -25 c0 -5 -4 -10 -10 -10 -5 0 -10 5
-10 10 0 6 5 10 10 10 6 0 10 -4 10 -10z m895 -11 c10 -15 2 -19 -23 -12 -12
3 -19 9 -16 14 7 12 31 11 39 -2z m141 -26 c-7 -7 -26 7 -26 19 0 6 6 6 15 -2
9 -7 13 -15 11 -17z m-1066 -51 c-8 -3 -18 -10 -22 -16 -5 -7 -8 -5 -8 6 0 18
19 29 35 20 5 -3 2 -8 -5 -10z m1149 -27 c28 -41 29 -45 11 -45 -11 0 -19 3
-18 8 1 7 -17 56 -28 73 -3 5 -3 9 0 9 2 0 18 -20 35 -45z m-1196 -5 c-3 -11
-9 -20 -15 -20 -5 0 -4 9 2 20 6 11 12 20 14 20 2 0 2 -9 -1 -20z m1496 -19
c9 -6 10 -11 2 -15 -6 -4 -11 -3 -11 1 0 5 -48 10 -107 12 -60 1 -110 5 -112
7 -8 8 214 3 228 -5z m-259 -51 c0 -5 -11 -10 -24 -10 -14 0 -28 5 -31 10 -4
6 7 10 24 10 17 0 31 -4 31 -10z m175 -40 c4 -6 -5 -10 -20 -10 -15 0 -24 4
-20 10 3 6 12 10 20 10 8 0 17 -4 20 -10z m-1418 -127 c3 -38 -18 -58 -52 -49
-31 8 -32 33 -2 63 30 30 51 25 54 -14z m199 12 c18 -14 17 -14 -11 -5 -27 10
-45 9 -92 -6 -17 -5 -17 -4 1 10 25 20 76 21 102 1z m974 5 c0 -5 -4 -10 -10
-10 -5 0 -10 5 -10 10 0 6 5 10 10 10 6 0 10 -4 10 -10z m30 -10 c0 -5 -4 -10
-10 -10 -5 0 -10 5 -10 10 0 6 5 10 10 10 6 0 10 -4 10 -10z m-350 -9 c0 -5
-6 -11 -12 -14 -10 -3 -8 -9 5 -24 18 -21 14 -33 -13 -33 -26 0 -42 25 -34 54
4 19 13 26 30 26 13 0 24 -4 24 -9z m1045 -11 c-3 -5 -14 -10 -23 -10 -15 0
-15 2 -2 10 20 13 33 13 25 0z m-1717 -23 c6 -5 11 -24 11 -41 -1 -25 -3 -27
-6 -7 -4 21 -9 23 -44 18 -40 -5 -46 2 -33 37 6 17 47 13 72 -7z m1832 -12 c0
-8 -7 -15 -15 -15 -8 0 -15 7 -15 15 0 8 7 15 15 15 8 0 15 -7 15 -15z m-1580
-15 c12 -23 5 -26 -16 -6 -16 17 -18 26 -4 26 5 0 14 -9 20 -20z m570 5 c0 -8
-4 -15 -10 -15 -5 0 -7 7 -4 15 4 8 8 15 10 15 2 0 4 -7 4 -15z m39 -16 c-14
-27 -29 -33 -29 -11 0 22 5 29 24 29 11 0 12 -5 5 -18z m1131 11 c0 -5 -2 -10
-4 -10 -3 0 -8 5 -11 10 -3 6 -1 10 4 10 6 0 11 -4 11 -10z m-2010 -20 c0 -5
-4 -10 -10 -10 -5 0 -10 5 -10 10 0 6 5 10 10 10 6 0 10 -4 10 -10z m945 -9
c-3 -6 -11 -9 -16 -5 -5 3 -17 0 -25 -7 -12 -10 -13 -9 -8 5 4 11 14 16 25 13
11 -3 19 0 19 6 0 6 3 8 6 4 3 -3 3 -11 -1 -16z m1005 4 c0 -8 -4 -15 -10 -15
-5 0 -10 7 -10 15 0 8 5 15 10 15 6 0 10 -7 10 -15z m-1332 -7 c-6 -18 -38
-22 -52 -7 -8 9 -7 11 6 6 10 -3 20 -2 23 3 9 15 27 12 23 -2z m98 -4 c-3 -9
-6 -19 -6 -23 0 -11 -39 -51 -50 -51 -17 0 -11 18 8 23 16 4 16 4 0 10 -10 4
-25 9 -33 12 -27 8 -16 21 28 32 60 15 60 15 53 -3z m-961 -14 c4 -6 10 -8 15
-5 16 10 20 -13 5 -25 -12 -10 -15 -10 -15 0 0 8 -3 10 -6 7 -10 -9 -46 12
-39 24 8 12 32 12 40 -1z m1255 -11 c0 -4 -8 -13 -17 -20 -15 -12 -16 -12 -10
3 3 9 1 19 -6 21 -7 3 -2 4 11 4 12 -1 22 -4 22 -8z m700 -9 c0 -11 -4 -20 -8
-20 -4 0 -8 9 -9 20 -1 11 2 20 8 20 5 0 9 -9 9 -20z m202 2 c26 -10 50 -21
54 -25 4 -4 13 -7 19 -7 23 0 110 -43 96 -48 -11 -4 -11 -6 0 -13 30 -19 -34
-8 -79 13 -26 13 -51 23 -57 23 -5 1 -24 9 -42 18 -18 9 -39 17 -48 17 -15 0
-21 21 -8 33 9 10 12 9 65 -11z m-1892 -4 c0 -15 -27 -21 -102 -23 -81 -1
-101 9 -46 23 38 10 148 10 148 0z m54 -13 c-4 -8 -10 -15 -15 -15 -5 0 -9 7
-9 15 0 8 7 15 15 15 9 0 12 -6 9 -15z m978 -7 c-7 -7 -12 -8 -12 -2 0 14 12
26 19 19 2 -3 -1 -11 -7 -17z m38 -4 c0 -8 -7 -14 -15 -14 -17 0 -18 2 -9 24
7 18 24 12 24 -10z m-866 1 c-6 -16 -24 -21 -24 -7 0 11 11 22 21 22 5 0 6 -7
3 -15z m1635 -17 c13 -5 21 -11 18 -14 -8 -8 -75 15 -83 28 -6 10 11 6 65 -14z
m403 -14 c-8 -14 -9 -13 -9 10 0 18 3 24 9 18 7 -7 7 -16 0 -28z m-2118 11
c-4 -8 -10 -12 -15 -9 -14 8 -10 24 6 24 9 0 12 -6 9 -15z m1165 -4 c8 -14 7
-20 -3 -24 -19 -8 -40 9 -33 27 8 21 24 20 36 -3z m-712 -23 c-3 -7 -5 -2 -5
12 0 14 2 19 5 13 2 -7 2 -19 0 -25z m197 23 c3 -5 0 -11 -7 -14 -8 -3 -14 1
-14 9 0 16 13 19 21 5z m437 -54 c-14 -15 -39 4 -34 24 5 19 6 19 23 2 10 -10
15 -22 11 -26z m-861 17 c0 -8 -5 -12 -10 -9 -6 4 -8 11 -5 16 9 14 15 11 15
-7z m1370 12 c0 -3 -4 -8 -10 -11 -5 -3 -10 -1 -10 4 0 6 5 11 10 11 6 0 10
-2 10 -4z m-806 -53 c-10 -7 -25 -13 -33 -12 -11 0 -12 2 -3 6 6 2 10 9 7 14
-4 5 2 6 11 2 12 -4 15 -3 10 5 -4 7 -4 17 0 23 4 8 10 6 17 -6 7 -14 5 -21
-9 -32z m799 20 c3 -5 -17 -9 -44 -10 -26 -2 -50 1 -53 6 -3 4 17 9 44 10 27
1 51 -2 53 -6z m-1053 -13 c0 -5 -4 -10 -10 -10 -5 0 -10 5 -10 10 0 6 5 10
10 10 6 0 10 -4 10 -10z m340 -10 c0 -5 -4 -10 -9 -10 -6 0 -13 5 -16 10 -3 6
1 10 9 10 9 0 16 -4 16 -10z m1231 -36 c-11 -17 -11 -17 -6 3 5 17 3 22 -8 17
-8 -3 -18 0 -23 7 -4 8 -3 10 4 5 7 -4 12 -2 12 6 0 8 5 7 16 -4 13 -13 14
-20 5 -34z m-1647 14 c3 -13 6 -35 6 -49 0 -28 28 -48 40 -29 4 6 24 13 46 15
21 3 47 8 57 11 12 4 25 -3 39 -21 18 -24 26 -27 61 -22 32 4 60 -3 136 -34
188 -78 172 -69 156 -91 -16 -23 -10 -48 12 -48 8 0 12 -4 9 -9 -3 -5 13 -11
37 -13 28 -3 45 0 50 9 5 7 14 10 20 6 22 -14 40 -12 84 8 42 19 50 42 15 38
-31 -3 -43 1 -37 11 3 6 0 10 -9 10 -8 0 -17 -6 -19 -12 -3 -8 -6 -5 -6 6 -1
12 -6 16 -16 12 -9 -3 -18 1 -21 9 -10 24 -37 19 -29 -6 6 -19 6 -20 -13 -3
-11 9 -18 23 -15 29 2 8 -13 21 -39 33 -24 11 -73 34 -110 51 -37 17 -72 31
-78 31 -5 0 -10 4 -10 9 0 12 64 2 69 -11 1 -5 12 -2 22 8 14 12 19 13 19 4 0
-7 3 -10 7 -7 3 4 16 1 27 -6 35 -22 57 -28 55 -14 -3 26 1 38 12 31 8 -5 8
-9 -1 -14 -9 -5 -6 -13 10 -28 18 -16 27 -19 41 -11 12 6 19 6 19 0 0 -5 -5
-11 -12 -13 -8 -3 -8 -7 -2 -11 6 -3 23 1 39 9 18 9 31 11 35 5 4 -7 35 -3 89
9 45 11 93 20 107 20 13 0 24 5 24 11 0 6 8 8 20 4 10 -3 38 -1 62 6 24 6 51
13 62 15 10 2 27 12 37 23 24 26 63 17 55 -12 -3 -11 -1 -29 5 -39 5 -10 7
-18 3 -18 -10 0 -44 41 -45 54 0 6 -5 -2 -10 -19 -6 -20 -5 -32 4 -37 9 -6 9
-8 0 -8 -8 0 -13 -14 -13 -35 0 -33 -2 -35 -20 -25 -18 10 -20 8 -20 -20 0
-32 -26 -43 -36 -15 -8 21 15 84 40 109 20 20 20 21 2 24 -22 5 -82 -11 -194
-49 -46 -16 -91 -29 -100 -29 -8 0 -24 -8 -34 -17 -11 -10 -18 -13 -16 -8 3
11 -4 15 -26 15 -23 0 -7 -40 18 -44 29 -6 56 -4 56 5 0 12 72 -2 112 -23 39
-21 57 -38 39 -38 -6 0 -11 5 -11 10 0 6 -9 10 -20 10 -12 0 -32 7 -45 16 -14
9 -32 14 -40 10 -17 -6 -21 -36 -4 -36 5 0 8 -4 4 -9 -3 -5 0 -13 6 -17 8 -4
8 -8 0 -13 -12 -8 -3 -51 11 -51 6 0 8 6 5 14 -3 8 8 19 29 30 49 23 77 19 32
-5 -28 -14 -38 -26 -38 -43 0 -25 22 -51 33 -39 4 3 7 2 7 -4 0 -6 -14 -16
-31 -22 -26 -9 -29 -9 -20 3 9 10 9 16 1 21 -6 4 -18 -1 -26 -11 -14 -18 -15
-17 -9 6 5 19 4 22 -4 10 -9 -13 -18 -11 -66 14 -62 32 -95 25 -45 -9 17 -11
30 -28 30 -37 0 -16 -3 -16 -42 2 -23 10 -47 16 -52 13 -5 -4 -2 -9 6 -12 9
-3 27 -19 39 -36 13 -16 17 -25 9 -20 -16 11 -80 35 -92 35 -5 0 -8 -7 -8 -16
0 -9 -9 -18 -20 -21 -11 -3 -20 -12 -20 -19 0 -9 -11 -14 -30 -14 -16 0 -30
-4 -30 -10 0 -5 -5 -10 -11 -10 -6 0 -25 -10 -42 -22 -18 -12 -29 -18 -25 -13
4 4 3 14 -3 22 -9 9 -8 13 0 13 6 0 11 4 11 8 0 13 -30 11 -79 -5 -24 -7 -51
-11 -60 -8 -9 3 -6 -4 7 -15 13 -11 21 -23 19 -27 -3 -5 21 -35 53 -68 33 -32
57 -62 54 -64 -3 -3 -8 -1 -12 4 -4 6 -25 23 -47 40 -22 16 -45 36 -51 45 -7
8 -30 34 -53 58 -50 53 -54 80 -8 73 4 0 7 4 7 9 0 6 11 8 25 4 15 -4 25 -2
25 5 0 6 7 11 15 11 14 0 20 18 16 49 -2 7 2 10 9 6 8 -5 11 -1 8 11 -3 14
-11 18 -33 17 -25 -2 -27 -1 -10 7 11 5 14 9 7 9 -9 1 -11 11 -6 35 3 19 1 43
-5 53 -10 17 -10 17 -11 -1 0 -14 -3 -16 -13 -7 -8 6 -17 8 -20 4 -4 -3 -13 0
-22 7 -13 11 -15 9 -15 -14 0 -26 -13 -35 -25 -16 -3 6 -15 10 -26 10 -11 0
-23 8 -26 18 -18 48 -86 80 -153 70 -23 -4 -31 0 -36 15 -4 13 -1 23 10 29 9
5 14 13 11 19 -3 5 1 6 11 2 14 -5 16 -1 10 28 -17 93 -18 109 -8 109 5 0 12
-10 16 -22z m197 5 c27 -10 49 -21 49 -26 0 -4 5 -5 10 -2 6 3 10 -1 10 -11 0
-11 -4 -14 -12 -7 -7 5 -35 18 -63 28 -53 19 -79 35 -56 35 7 0 35 -8 62 -17z
m524 7 c-3 -5 -12 -10 -18 -10 -7 0 -6 4 3 10 19 12 23 12 15 0z m686 -10 c31
-13 56 -17 63 -12 6 5 19 12 30 16 15 5 17 3 11 -11 -4 -10 -7 -28 -6 -40 1
-23 -14 -32 -21 -12 -5 16 -77 29 -104 18 -16 -5 -24 -5 -24 2 0 6 -9 8 -20 4
-22 -7 -26 6 -10 36 13 24 17 24 81 -1z m-2011 -5 c0 -9 -6 -12 -15 -9 -8 4
-12 10 -9 15 8 14 24 10 24 -6z m1032 1 c11 6 11 5 0 -8 -12 -15 -52 -14 -52
1 0 15 14 20 26 10 7 -6 19 -7 26 -3z m-1127 -9 c37 1 38 0 21 -13 -24 -17
-47 -18 -81 -2 -31 14 -34 32 -2 21 12 -4 40 -7 62 -6z m535 -2 c-7 -8 -16
-12 -21 -9 -13 8 -1 24 18 24 13 0 13 -3 3 -15z m506 -17 c18 -20 18 -21 1
-15 -10 4 -22 7 -26 7 -4 0 -8 7 -8 15 0 21 11 19 33 -7z m331 16 c-3 -3 -12
-4 -19 -1 -8 3 -5 6 6 6 11 1 17 -2 13 -5z m-1207 -25 c0 -6 -4 -7 -10 -4 -5
3 -10 11 -10 16 0 6 5 7 10 4 6 -3 10 -11 10 -16z m2130 11 c-8 -5 -26 -9 -40
-9 -23 0 -23 1 -5 9 11 5 29 9 40 9 17 1 17 -1 5 -9z m-965 -39 c-3 -6 -11
-11 -16 -11 -5 0 -4 6 3 14 14 16 24 13 13 -3z m775 -11 c13 7 22 5 30 -5 10
-12 9 -15 -4 -15 -10 0 -14 -4 -11 -10 4 -6 -9 -10 -32 -10 -21 -1 -49 -7 -63
-15 -34 -19 -39 -18 -33 5 3 11 12 20 19 20 8 0 14 3 14 8 0 12 44 29 54 21 5
-5 17 -4 26 1z m-1750 -22 c0 -14 -18 -17 -28 -5 -8 10 -6 13 9 13 10 0 19 -4
19 -8z m80 -32 c0 -3 -4 -8 -10 -11 -5 -3 -10 -1 -10 4 0 6 5 11 10 11 6 0 10
-2 10 -4z m1799 -5 c12 -8 12 -13 -3 -36 -14 -21 -20 -24 -32 -14 -18 15 -18
20 1 13 8 -4 15 -1 15 5 0 6 -7 11 -15 11 -9 0 -12 6 -9 15 7 17 22 19 43 6z
m-1772 -16 c0 -8 -4 -15 -9 -15 -4 0 -8 7 -8 15 0 8 4 15 8 15 5 0 9 -7 9 -15z
m1127 -20 c-4 -9 3 -16 21 -21 14 -3 24 -9 21 -12 -7 -7 -66 18 -66 28 0 7 7
12 27 19 1 1 0 -6 -3 -14z m-153 -13 c-7 -2 -18 1 -23 6 -8 8 -4 9 13 5 13 -4
18 -8 10 -11z m-841 -14 c0 20 27 14 33 -7 3 -15 1 -18 -11 -14 -10 4 -13 2
-8 -5 9 -15 4 -15 -29 0 -25 11 -32 28 -18 42 4 4 13 -1 20 -10 7 -10 13 -12
13 -6z m-173 -3 c0 -8 -4 -12 -9 -9 -5 3 -6 10 -3 15 9 13 12 11 12 -6z m1467
-10 c-4 -8 -8 -15 -10 -15 -2 0 -4 7 -4 15 0 8 4 15 10 15 5 0 7 -7 4 -15z
m-1094 -9 c0 -15 -14 -36 -25 -36 -7 0 -19 -10 -27 -22 l-15 -23 -53 25 c-28
13 -46 26 -38 29 7 2 16 9 20 15 6 10 138 22 138 12z m550 -16 c0 -13 -11 -13
-30 0 -12 8 -11 10 8 10 12 0 22 -4 22 -10z m-1305 -20 c3 -5 1 -10 -4 -10 -6
0 -11 5 -11 10 0 6 2 10 4 10 3 0 8 -4 11 -10z m1295 -9 c0 -5 -11 -8 -25 -8
-14 0 -28 3 -31 8 -3 5 9 9 25 9 17 0 31 -4 31 -9z m843 -21 c6 -24 1 -25 -19
-5 -9 8 -12 19 -9 25 9 14 21 5 28 -20z m-2238 -45 c-14 -19 -33 -35 -41 -35
-9 0 0 13 21 31 19 17 36 41 36 53 1 17 2 18 6 3 3 -10 -7 -33 -22 -52z m999
23 c-2 -34 -6 -42 -19 -40 -9 2 -14 -1 -11 -7 4 -5 2 -13 -4 -16 -6 -4 -9 -1
-8 7 2 7 -3 12 -11 10 -13 -3 -31 14 -31 31 0 4 8 7 18 7 14 0 15 2 2 9 -8 6
-18 7 -22 5 -4 -3 -8 -1 -8 5 0 15 21 25 29 14 13 -20 38 -21 52 -2 7 10 14
19 14 19 1 0 0 -19 -1 -42z m1037 3 c-25 -25 -27 -15 -4 19 9 13 18 19 21 12
2 -6 -6 -20 -17 -31z m105 14 c-3 -8 5 -24 17 -36 15 -15 17 -20 6 -16 -10 3
-26 -4 -40 -19 -20 -21 -19 -29 4 -25 4 0 7 -6 7 -14 0 -14 -3 -14 -22 1 -13
10 -34 31 -47 47 -20 24 -22 31 -10 38 8 5 22 7 32 5 12 -3 17 2 17 15 0 13 7
19 21 19 15 0 19 -5 15 -15z m-1626 -35 c-8 -5 -19 -10 -25 -10 -5 0 -3 5 5
10 8 5 20 10 25 10 6 0 3 -5 -5 -10z m258 -35 c4 -4 -3 -4 -15 -1 -14 5 -23 3
-23 -4 0 -18 -37 7 -43 29 -4 18 -4 18 34 2 22 -10 43 -21 47 -26z m1109 39
c-3 -3 -12 -4 -19 -1 -8 3 -5 6 6 6 11 1 17 -2 13 -5z m-1283 -13 c8 -12 -13
-66 -21 -57 -9 9 -14 38 -8 54 5 14 21 16 29 3z m1236 -11 c0 -5 -6 -10 -14
-10 -8 0 -18 5 -21 10 -3 6 3 10 14 10 12 0 21 -4 21 -10z m-2365 -10 c-3 -5
-12 -10 -18 -10 -7 0 -6 4 3 10 19 12 23 12 15 0z m963 1 c-2 -5 1 -8 5 -7 11
1 31 -34 23 -41 -8 -8 -67 38 -61 48 8 12 36 12 33 0z m72 -7 c0 -8 -4 -12
-10 -9 -5 3 -10 10 -10 16 0 5 5 9 10 9 6 0 10 -7 10 -16z m1220 9 c-14 -3
-31 -10 -38 -15 -7 -6 -16 -8 -19 -4 -12 11 19 26 52 24 27 -1 28 -1 5 -5z
m222 -7 c22 0 38 -5 38 -12 0 -7 -12 -11 -32 -9 -58 7 -98 17 -98 26 0 5 12 6
27 3 15 -4 44 -8 65 -8z m275 8 c-3 -3 -12 -4 -19 -1 -8 3 -5 6 6 6 11 1 17
-2 13 -5z m-1704 -44 c-6 -23 -22 -37 -19 -18 2 14 15 38 21 38 2 0 1 -9 -2
-20z m-998 0 c3 -5 1 -10 -4 -10 -6 0 -11 5 -11 10 0 6 2 10 4 10 3 0 8 -4 11
-10z m1251 1 c-9 -15 24 -22 69 -16 38 6 42 4 53 -21 l13 -27 -58 6 c-38 4
-62 12 -70 23 -7 10 -13 14 -13 9 0 -5 -5 -4 -11 2 -12 12 -4 33 12 33 6 0 8
-4 5 -9z m1399 -1 c4 -6 11 -7 17 -4 6 4 8 -1 6 -11 -5 -28 -28 -30 -29 -3 0
22 -1 22 -9 3 -8 -19 -9 -19 -9 3 -1 23 13 30 24 12z m-1105 -10 c0 -11 -14
-11 -50 0 -22 7 -21 8 13 9 20 1 37 -3 37 -9z m-660 -10 c8 -5 11 -10 5 -10
-5 0 -17 5 -25 10 -8 5 -10 10 -5 10 6 0 17 -5 25 -10z m234 -6 c4 -9 5 -18 4
-19 -7 -6 -48 15 -48 25 0 17 37 11 44 -6z m-1069 -4 c3 -5 1 -10 -4 -10 -6 0
-11 5 -11 10 0 6 2 10 4 10 3 0 8 -4 11 -10z m1015 -12 c31 -4 39 -39 14 -59
-10 -8 -15 -9 -11 -3 7 12 -19 29 -40 25 -17 -2 -25 16 -18 40 5 14 10 17 18
10 7 -5 23 -11 37 -13z m1383 7 c-3 -10 -8 -10 -55 -7 -18 2 -20 4 -9 11 19
12 67 9 64 -4z m-945 -2 c-10 -2 -26 -2 -35 0 -10 3 -2 5 17 5 19 0 27 -2 18
-5z m1181 -33 c-22 -42 -39 -49 -59 -25 -11 13 -8 16 19 21 17 4 36 15 42 25
5 11 12 19 14 19 3 0 -5 -18 -16 -40z m-2569 20 c0 -5 -6 -10 -14 -10 -8 0
-18 5 -21 10 -3 6 3 10 14 10 12 0 21 -4 21 -10z m103 -7 c-7 -2 -19 -2 -25 0
-7 3 -2 5 12 5 14 0 19 -2 13 -5z m795 -56 c12 -11 22 -25 22 -30 0 -6 -10 2
-23 16 -12 15 -30 27 -38 27 -8 0 -24 7 -35 15 -17 13 -16 14 16 3 19 -6 45
-20 58 -31z m97 4 c3 -5 1 -12 -5 -16 -5 -3 -10 1 -10 9 0 18 6 21 15 7z
m1471 -183 c-9 -12 -16 -30 -16 -40 0 -10 -5 -18 -11 -18 -6 0 -8 9 -4 23 9
30 35 70 42 64 3 -3 -2 -16 -11 -29z m-2705 -147 c4 -21 2 -37 -7 -46 -8 -7
-14 -21 -14 -30 0 -9 -6 -15 -12 -13 -8 3 -14 29 -16 71 -3 66 -3 67 20 58 14
-5 25 -20 29 -40z m-471 -48 c-1 -25 -14 -53 -26 -53 -17 0 -18 26 -1 45 13
16 27 19 27 8z m2425 -31 c-3 -3 -11 0 -18 7 -9 10 -8 11 6 5 10 -3 15 -9 12
-12z m-2509 -39 c-10 -10 -19 5 -10 18 6 11 8 11 12 0 2 -7 1 -15 -2 -18z
m1490 -8 c-6 -25 -7 -25 -37 -9 -21 10 -28 19 -21 26 7 7 17 6 31 -1 18 -10
21 -9 21 5 0 10 3 15 6 11 4 -3 4 -18 0 -32z m1004 31 c0 -2 -8 -10 -17 -17
-16 -13 -17 -12 -4 4 13 16 21 21 21 13z m116 -22 c-9 -33 -35 -74 -49 -74 -5
0 -3 8 6 18 9 10 20 33 23 50 4 18 11 32 16 32 6 0 7 -11 4 -26z m-916 -4 c0
-5 -7 -7 -15 -4 -8 4 -15 8 -15 10 0 2 7 4 15 4 8 0 15 -4 15 -10z m20 -47
c-11 -17 -11 -17 -6 0 3 10 6 24 7 30 0 9 2 9 5 0 3 -7 0 -20 -6 -30z m-39 4
c-10 -9 -11 -8 -5 6 3 10 9 15 12 12 3 -3 0 -11 -7 -18z m579 -59 c24 -38 40
-74 40 -92 0 -37 -29 -98 -50 -104 -11 -4 -11 0 3 16 44 49 39 120 -12 166
-12 11 -21 25 -21 33 0 8 -13 13 -37 14 l-38 1 30 13 c17 8 33 14 37 15 4 0
26 -28 48 -62z m-600 17 c0 -8 -6 -15 -13 -15 -8 0 -14 7 -14 15 0 8 6 15 14
15 7 0 13 -7 13 -15z m37 -18 c-6 -20 -27 -19 -27 2 0 14 5 19 15 14 9 -3 14
-10 12 -16z m339 -97 c0 -27 -3 -50 -5 -50 -7 0 -41 43 -41 52 0 8 36 48 44
48 2 0 3 -22 2 -50z m-166 14 c0 -8 -4 -12 -10 -9 -5 3 -10 10 -10 16 0 5 5 9
10 9 6 0 10 -7 10 -16z m40 -12 c0 -13 -12 -22 -22 -16 -10 6 -1 24 13 24 5 0
9 -4 9 -8z m240 -7 c7 -8 9 -15 6 -15 -4 0 -14 7 -22 15 -9 8 -11 15 -6 15 5
0 15 -7 22 -15z m-40 -12 c0 -14 -2 -15 -9 -4 -7 11 -9 11 -14 0 -4 -10 -6 -9
-6 4 -1 9 6 17 14 17 8 0 15 -8 15 -17z m-135 -2 c-3 -6 4 -15 15 -21 29 -15
25 -25 -14 -37 -22 -7 -39 -7 -51 0 -14 7 -22 5 -34 -12 -15 -20 -18 -20 -46
-5 -42 21 -49 30 -30 38 10 4 14 2 9 -5 -4 -7 -1 -10 7 -7 8 3 13 11 11 18 -2
8 4 11 18 7 11 -3 20 -1 20 4 0 5 12 9 28 10 15 0 36 4 47 9 27 11 27 11 20 1z
m-175 -21 c12 -8 9 -9 -12 -8 -15 1 -24 6 -22 10 7 10 16 10 34 -2z m420 -80
c-18 -12 -100 -13 -100 -2 0 4 15 6 34 4 19 -2 42 1 53 6 22 13 34 5 13 -8z
m194 -166 c-3 -17 0 -24 11 -24 8 0 15 -7 15 -15 0 -8 -5 -15 -11 -15 -5 0 -7
-6 -4 -12 4 -7 -1 -4 -9 6 -9 11 -16 33 -16 49 0 15 -7 35 -15 43 -25 26 -17
39 9 15 17 -16 23 -31 20 -47z m56 -24 c4 0 11 8 14 17 5 13 9 14 19 3 9 -10
9 -14 -1 -17 -8 -3 -22 -19 -33 -37 l-19 -31 1 55 c1 30 4 45 6 33 2 -13 8
-23 13 -23z m160 -85 c62 -62 71 -75 52 -75 -18 0 -174 70 -191 86 -3 2 5 13
17 24 12 12 22 25 22 30 0 24 30 4 100 -65z"/>
<path d="M2510 1672 c0 -12 40 -33 50 -27 22 14 9 35 -20 35 -16 0 -30 -3 -30
-8z"/>
<path d="M2620 1645 c0 -9 6 -12 15 -9 8 4 12 10 9 15 -8 14 -24 10 -24 -6z"/>
<path d="M3103 1603 c-3 -10 -8 -22 -11 -27 -3 -5 0 -6 6 -2 5 3 12 0 14 -6 3
-7 5 2 5 20 0 36 -5 41 -14 15z"/>
<path d="M3075 1600 c3 -5 8 -10 11 -10 2 0 4 5 4 10 0 6 -5 10 -11 10 -5 0
-7 -4 -4 -10z"/>
<path d="M716 1957 c-18 -13 -41 -20 -58 -18 -42 4 -35 -24 10 -37 102 -30
132 -23 132 33 0 25 -5 34 -22 39 -31 8 -29 8 -62 -17z"/>
<path d="M4362 1943 c-15 -50 -20 -103 -10 -97 4 3 8 17 8 31 0 22 2 24 15 13
13 -11 14 -10 9 3 -10 26 36 31 121 13 84 -17 201 -21 209 -7 3 5 -34 11 -82
13 -67 4 -104 12 -162 37 -41 17 -80 31 -86 31 -6 0 -16 -17 -22 -37z"/>
<path d="M4860 1269 c-35 -14 -60 -39 -60 -60 0 -12 6 -16 18 -12 22 5 74 -36
55 -43 -7 -3 -13 -18 -13 -33 0 -30 31 -51 73 -51 18 0 19 2 7 10 -12 8 -11
10 8 10 12 0 22 -4 22 -10 0 -5 7 -10 15 -10 19 0 21 86 3 93 -10 3 -10 9 0
26 22 37 15 61 -23 77 -39 16 -69 17 -105 3z"/>
<path d="M4910 965 c0 -5 24 -16 68 -29 18 -6 22 -4 22 13 0 18 -6 21 -45 21
-25 0 -45 -2 -45 -5z"/>
<path d="M2871 194 c54 -40 64 -51 53 -61 -8 -8 -15 -9 -19 -3 -3 6 -3 10 1
10 4 0 -5 9 -20 21 -20 16 -34 19 -54 14 -15 -4 -39 -9 -53 -10 -17 -1 -46
-21 -79 -54 -47 -47 -57 -53 -86 -48 -23 4 -39 0 -54 -13 l-22 -19 39 -16 c32
-14 64 -16 213 -11 96 4 207 10 245 14 l70 7 3 37 3 37 -128 64 c-166 83 -194
91 -112 31z"/>
</g>
</svg>
